<?xml version="1.0" encoding="UTF-8"?>
<!-- Generator: Adobe Illustrator 21.0.0, SVG Export Plug-In . SVG Version: 6.00 Build 0)  -->
<svg xmlns="http://www.w3.org/2000/svg" xmlns:xlink="http://www.w3.org/1999/xlink" version="1.1" id="레이어_1" x="0px" y="0px" viewBox="0 0 194 56" style="enable-background:new 0 0 194 56;" xml:space="preserve">
<style type="text/css">
	.st0{fill:url(#SVGID_1_);}
	.st1{fill:url(#SVGID_2_);}
	.st2{fill:url(#SVGID_3_);}
	.st3{fill:url(#SVGID_4_);}
	.st4{fill:url(#SVGID_5_);}
</style>
<g>
	<linearGradient id="SVGID_1_" gradientUnits="userSpaceOnUse" x1="4.0135" y1="38.7209" x2="191.655" y2="38.7209">
		<stop offset="0" style="stop-color:#4E9D2D"></stop>
		<stop offset="1" style="stop-color:#0088CF"></stop>
	</linearGradient>
	<path class="st0" d="M33,24.5H12c0,0-7.3,0-7.3,7.8V53h11.7V32.5c0-1.7,1.4-3,3-3h6.2c1.7,0,3,1.4,3,3V53h11.7V32.3   C40.3,24.5,33,24.5,33,24.5z"></path>
	<linearGradient id="SVGID_2_" gradientUnits="userSpaceOnUse" x1="4.0135" y1="38.7209" x2="191.655" y2="38.7209">
		<stop offset="0" style="stop-color:#4E9D2D"></stop>
		<stop offset="1" style="stop-color:#0088CF"></stop>
	</linearGradient>
	<path class="st1" d="M123,24.5H89.7c0,0-7.3,0-7.3,7.8V53H94V32.5c0-1.7,1.4-3,3-3h1.6c1.7,0,3,1.4,3,3V53h9.2V32.5   c0-1.7,1.4-3,3-3h1.6c1.7,0,3,1.4,3,3V53h11.7V32.3C130.3,24.5,123,24.5,123,24.5z"></path>
	<linearGradient id="SVGID_3_" gradientUnits="userSpaceOnUse" x1="4.0135" y1="39.0373" x2="191.655" y2="39.0373">
		<stop offset="0" style="stop-color:#4E9D2D"></stop>
		<stop offset="1" style="stop-color:#0088CF"></stop>
	</linearGradient>
	<path class="st2" d="M158.6,45.3c0,1.7-1.4,3-3,3h-6.2c-1.7,0-3-1.4-3-3V24.8h-11.7v20.7c0,7.8,7.3,7.8,7.3,7.8h21   c0,0,7.3,0,7.3-7.8V24.8h-11.7V45.3z"></path>
	<linearGradient id="SVGID_4_" gradientUnits="userSpaceOnUse" x1="4.0135" y1="14.4298" x2="191.655" y2="14.4298">
		<stop offset="0" style="stop-color:#4E9D2D"></stop>
		<stop offset="1" style="stop-color:#0088CF"></stop>
	</linearGradient>
	<circle class="st3" cx="180.7" cy="14.4" r="10.4"></circle>
	<linearGradient id="SVGID_5_" gradientUnits="userSpaceOnUse" x1="4.0135" y1="38.8793" x2="191.655" y2="38.8793">
		<stop offset="0" style="stop-color:#4E9D2D"></stop>
		<stop offset="1" style="stop-color:#0088CF"></stop>
	</linearGradient>
	<path class="st4" d="M70.6,24.5H47.8h-2.5V27c0,1.4,1.1,2.5,2.5,2.5c0,0,0,0,0,0h0h15.5c1.3,0,2.8,0.4,2.8,3.2L52.8,36   c-4.7,1.4-8.7,3.9-8.7,8.7c0,4.8,3.9,8.7,8.7,8.7h17.9c0,0,7.3,0,7.3-7.8V32.3C78,24.5,70.6,24.5,70.6,24.5z M66.3,45.3   c0,1.7-1.4,3-3,3h-6c-1.7,0-3.7-1.1-3.7-4.1c0-2.9,2-3.5,3.7-4l9-1.9V45.3z"></path>
</g>
</svg>
